HIERARCHY
ROOT joint_Root
{
	OFFSET 0.0 0.0 0.0
	CHANNELS 6 Xposition Yposition Zposition Zrotation Xrotation Yrotation 
	JOINT Hips
	{
		OFFSET -17.1583 93.1646 452.98
		CHANNELS 6 Xposition Yposition Zposition Zrotation Xrotation Yrotation 
		JOINT Spine
		{
			OFFSET 15.7357 0.0 0.0
			CHANNELS 6 Xposition Yposition Zposition Zrotation Xrotation Yrotation 
			JOINT Chest
			{
				OFFSET 8.98455 -0.406207 0.0
				CHANNELS 6 Xposition Yposition Zposition Zrotation Xrotation Yrotation 
				JOINT Neck
				{
					OFFSET 16.3773 0.0 0.0
					CHANNELS 6 Xposition Yposition Zposition Zrotation Xrotation Yrotation 
					JOINT Head
					{
						OFFSET 6.45672 0.0 0.0
						CHANNELS 6 Xposition Yposition Zposition Zrotation Xrotation Yrotation 
						End Site
						{
							OFFSET 0.0 0.0 0.0
						}
					}
				}
				JOINT Shoulder_L
				{
					OFFSET 12.9942 -0.242716 4.98039
					CHANNELS 6 Xposition Yposition Zposition Zrotation Xrotation Yrotation 
					JOINT UpperArm_L
					{
						OFFSET 5.34809 0.0 0.0
						CHANNELS 6 Xposition Yposition Zposition Zrotation Xrotation Yrotation 
						JOINT LowerArm_L
						{
							OFFSET 24.3286 1.87007e-05 0.0
							CHANNELS 6 Xposition Yposition Zposition Zrotation Xrotation Yrotation 
							JOINT Hand_L
							{
								OFFSET 22.2916 0.0 0.0
								CHANNELS 6 Xposition Yposition Zposition Zrotation Xrotation Yrotation 
								End Site
								{
									OFFSET 0.0 0.0 0.0
								}
							}
						}
					}
				}
				JOINT Shoulder_R
				{
					OFFSET 12.9945 -0.242716 -4.98039
					CHANNELS 6 Xposition Yposition Zposition Zrotation Xrotation Yrotation 
					JOINT UpperArm_R
					{
						OFFSET -5.34813 0.0 0.0
						CHANNELS 6 Xposition Yposition Zposition Zrotation Xrotation Yrotation 
						JOINT LowerArm_R
						{
							OFFSET -24.3289 0.000322201 0.0
							CHANNELS 6 Xposition Yposition Zposition Zrotation Xrotation Yrotation 
							JOINT Hand_R
							{
								OFFSET -22.2915 -0.000108084 0.0
								CHANNELS 6 Xposition Yposition Zposition Zrotation Xrotation Yrotation 
								End Site
								{
									OFFSET 0.0 0.0 0.0
								}
							}
						}
					}
				}
			}
		}
		JOINT UpperLeg_L
		{
			OFFSET -2.19248 -6.46944 0.0
			CHANNELS 6 Xposition Yposition Zposition Zrotation Xrotation Yrotation 
			JOINT LowerLeg_L
			{
				OFFSET 39.0811 0.0 -1.23785e-05
				CHANNELS 6 Xposition Yposition Zposition Zrotation Xrotation Yrotation 
				JOINT Foot_L
				{
					OFFSET 40.9854 0.0 -1.26872e-05
					CHANNELS 6 Xposition Yposition Zposition Zrotation Xrotation Yrotation 
					JOINT Toes_L
					{
						OFFSET 11.7543 0.0 0.0
						CHANNELS 6 Xposition Yposition Zposition Zrotation Xrotation Yrotation 
						End Site
						{
							OFFSET 0.0 0.0 0.0
						}
					}
				}
			}
		}
		JOINT UpperLeg_R
		{
			OFFSET -2.19251 6.46944 0.0
			CHANNELS 6 Xposition Yposition Zposition Zrotation Xrotation Yrotation 
			JOINT LowerLeg_R
			{
				OFFSET -39.0811 -0.00228153 -0.0401928
				CHANNELS 6 Xposition Yposition Zposition Zrotation Xrotation Yrotation 
				JOINT Foot_R
				{
					OFFSET -40.9854 0.0 0.0
					CHANNELS 6 Xposition Yposition Zposition Zrotation Xrotation Yrotation 
					JOINT Toes_R
					{
						OFFSET -11.7543 0.0 0.0
						CHANNELS 6 Xposition Yposition Zposition Zrotation Xrotation Yrotation 
						End Site
						{
							OFFSET 0.0 0.0 0.0
						}
					}
				}
			}
		}
	}
}
MOTION
Frames:	5
Frame Time:	0.0333333
0.000000 0.000000 0.000000 0.000000 0.000000 -0.000000 191.390000 89.557200 207.391000 93.864100 -42.787200 -1.801760 15.735700 0.000005 -0.000001 32.621200 83.500500 -31.364000 8.984550 -0.406207 -0.000000 -0.631527 -11.038400 2.458030 16.377300 -0.000001 -0.000001 -6.229880 -6.945530 -4.153750 6.456720 -0.000001 -0.000000 -2.201410 -9.181820 -3.574510 12.994200 -0.242716 4.980390 -91.058000 3.763970 -74.287500 5.348090 -0.000007 -0.000001 -59.550100 -17.028000 -24.044500 24.328600 0.000019 0.000005 18.143500 5.950460 -72.443900 22.291600 -0.000001 0.000005 19.270500 4.904030 9.298570 12.994500 -0.242716 -4.980390 90.573000 -1.563750 -69.872000 -5.348130 -0.000001 -0.000004 -40.341400 -23.904600 25.966100 -24.328900 0.000322 -0.000009 -0.302739 -3.067310 -5.618870 -22.291500 -0.000108 -0.000004 26.912100 5.228920 1.974000 -2.192480 -6.469440 -0.000000 -174.376000 -16.138500 8.174250 39.081100 -0.000007 -0.000012 -0.052746 0.137676 20.962500 40.985400 -0.000006 -0.000013 -12.415200 10.682300 -64.635100 11.754300 -0.000000 0.000003 -0.020640 -0.170819 -23.557100 -2.192510 6.469440 -0.000001 -169.080000 6.440970 151.264000 -39.081100 -0.002282 -0.040193 -0.002839 0.042654 8.244610 -40.985400 0.000008 0.000006 -0.028912 -10.800200 -61.866700 -11.754300 -0.000006 -0.000006 0.001468 0.137529 -10.996100
0.000000 0.000000 0.000000 0.000000 0.000000 -0.000000 188.229000 88.714700 211.006000 93.258000 -42.989400 -3.660390 15.735700 0.000005 -0.000001 28.618200 83.609300 -26.703000 8.984550 -0.406207 -0.000000 -1.456880 -11.371500 3.693910 16.377300 -0.000001 -0.000001 -7.350050 -6.825210 -4.287600 6.456720 -0.000001 -0.000000 -3.890060 -8.651020 -4.846400 12.994200 -0.242716 4.980390 -91.312700 4.722400 -74.446100 5.348090 -0.000007 -0.000001 -60.394700 -15.057300 -21.263100 24.328600 0.000019 0.000005 19.681100 5.735890 -74.388000 22.291600 -0.000001 0.000005 21.283300 4.917890 9.020050 12.994500 -0.242716 -4.980390 90.482300 -1.318930 -69.912800 -5.348130 -0.000001 -0.000004 -40.724500 -23.678500 24.521500 -24.328900 0.000322 -0.000009 -0.167054 -2.427220 -3.911470 -22.291500 -0.000108 -0.000004 33.499700 5.177240 3.264150 -2.192480 -6.469440 -0.000000 -173.290000 -16.476900 7.812160 39.081100 -0.000007 -0.000012 -0.042922 0.095832 24.127000 40.985400 -0.000006 -0.000013 -12.229600 11.325500 -62.255000 11.754300 -0.000000 0.000003 -0.060597 -0.333723 -30.361100 -2.192510 6.469440 -0.000001 -167.277000 7.542930 148.079000 -39.081100 -0.002282 -0.040193 -0.019878 0.097460 13.396000 -40.985400 0.000008 0.000006 2.620830 -12.868500 -61.591300 -11.754300 -0.000006 -0.000006 0.001868 0.125705 -11.475700
0.000000 0.000000 0.000000 0.000000 0.000000 -0.000000 184.647000 88.097300 214.698000 91.799300 -43.519400 -6.998790 15.735700 0.000005 -0.000001 20.468700 84.289400 -17.665200 8.984550 -0.406207 -0.000000 -3.527560 -10.970100 5.283260 16.377300 -0.000001 -0.000001 -7.739240 -6.705790 -4.395260 6.456720 -0.000001 -0.000000 -4.560530 -8.398270 -6.110120 12.994200 -0.242716 4.980390 -91.773300 6.270360 -74.174400 5.348090 -0.000007 -0.000001 -61.894200 -11.133400 -17.582300 24.328600 0.000019 0.000005 21.800800 6.488770 -74.224600 22.291600 -0.000001 0.000005 20.877000 4.939300 8.584040 12.994500 -0.242716 -4.980390 90.433600 -1.196330 -70.077000 -5.348130 -0.000001 -0.000004 -41.677900 -23.829000 24.065400 -24.328900 0.000322 -0.000009 -0.105340 -1.856490 -3.215720 -22.291500 -0.000108 -0.000004 34.700000 5.111900 4.843570 -2.192480 -6.469440 -0.000000 -171.723000 -17.194500 5.810240 39.081100 -0.000007 -0.000012 0.011220 -0.021105 27.996600 40.985400 -0.000006 -0.000013 -12.672300 11.587200 -56.611000 11.754300 -0.000000 0.000003 -0.149916 -0.554584 -40.031300 -2.192510 6.469440 -0.000001 -164.655000 7.415820 143.985000 -39.081100 -0.002282 -0.040193 -0.038070 0.112625 20.179000 -40.985400 0.000008 0.000006 12.168900 -13.079300 -55.855500 -11.754300 -0.000006 -0.000006 0.001233 0.143389 -10.758300
0.000000 0.000000 0.000000 0.000000 0.000000 -0.000000 180.650000 87.625400 218.639000 90.171000 -44.962800 -8.146040 15.735700 0.000005 -0.000001 19.804300 85.045300 -16.379300 8.984550 -0.406207 -0.000000 -4.139250 -9.671680 6.516040 16.377300 -0.000001 -0.000001 -7.814800 -6.507790 -4.125960 6.456720 -0.000001 -0.000000 -4.460550 -8.354970 -6.460770 12.994200 -0.242716 4.980390 -92.183900 7.546600 -73.808800 5.348090 -0.000007 -0.000001 -65.123900 -6.989970 -14.116400 24.328600 0.000019 0.000005 23.651100 8.620100 -71.108900 22.291600 -0.000001 0.000005 17.782000 4.980360 7.727440 12.994500 -0.242716 -4.980390 90.097700 -0.279939 -70.796900 -5.348130 -0.000001 -0.000004 -43.054800 -24.629300 23.604600 -24.328900 0.000322 -0.000009 -0.148128 -3.276800 -2.574800 -22.291500 -0.000108 -0.000004 30.526200 5.107110 4.942860 -2.192480 -6.469440 -0.000000 -169.908000 -16.620900 4.638940 39.081100 -0.000007 -0.000012 0.115289 -0.172273 33.791000 40.985400 -0.000006 -0.000013 -12.616000 11.100500 -47.454700 11.754300 -0.000000 0.000003 -0.221671 -0.679955 -45.890600 -2.192510 6.469440 -0.000001 -164.371000 5.382820 142.838000 -39.081100 -0.002282 -0.040193 -0.005518 0.015338 29.899900 -40.985400 0.000008 0.000006 10.936200 -13.991400 -60.966800 -11.754300 -0.000006 -0.000006 0.000610 0.156687 -10.218700
0.000000 0.000000 0.000000 0.000000 0.000000 -0.000000 176.624000 87.336500 222.354000 89.361100 -47.241200 -6.696160 15.735700 0.000005 -0.000001 29.761800 85.459800 -26.250100 8.984550 -0.406207 -0.000000 -3.010590 -8.209170 6.817940 16.377300 -0.000001 -0.000001 -7.631100 -6.147430 -3.251470 6.456720 -0.000001 -0.000000 -3.904810 -8.136050 -5.812360 12.994200 -0.242716 4.980390 -92.345300 7.993320 -73.588900 5.348090 -0.000007 -0.000001 -69.577800 -4.196570 -11.565600 24.328600 0.000019 0.000005 22.810000 11.964100 -63.760000 22.291600 -0.000001 0.000005 13.400500 5.024980 6.771630 12.994500 -0.242716 -4.980390 89.620100 1.172450 -72.041400 -5.348130 -0.000001 -0.000004 -46.867700 -25.504300 20.554100 -24.328900 0.000322 -0.000009 -0.120614 -4.855220 -1.414130 -22.291500 -0.000108 -0.000004 24.957700 5.128540 4.452830 -2.192480 -6.469440 -0.000000 -169.173000 -13.988400 2.948420 39.081100 -0.000007 -0.000012 0.243226 -0.266667 42.367800 40.985400 -0.000006 -0.000013 -12.307300 10.520400 -37.171800 11.754300 -0.000000 0.000003 -0.085450 -0.406935 -33.496000 -2.192510 6.469440 -0.000001 -164.196000 5.695400 145.869000 -39.081100 -0.002282 -0.040193 0.009955 -0.009145 36.089900 -40.985400 0.000008 0.000006 8.935480 -12.828400 -67.026400 -11.754300 -0.000006 -0.000006 -0.001165 0.185396 -9.052580
